<?xml version="1.0" standalone="no"?><!DOCTYPE svg PUBLIC "-//W3C//DTD SVG 1.1//EN" "http://www.w3.org/Graphics/SVG/1.1/DTD/svg11.dtd"><svg t="1781780967467" class="icon" viewBox="0 0 1892 1024" version="1.1" xmlns="http://www.w3.org/2000/svg" p-id="6879" xmlns:xlink="http://www.w3.org/1999/xlink" width="88.6875" height="48"><path d="M694.370521 372.363636v1.520485c32.581818 7.059394 57.064727 37.748364 57.064727 74.550303 0 32.690424-19.331879 60.555636-46.467878 71.338667 27.136 10.752 46.467879 38.601697 46.467878 71.307636 0 36.801939-24.498424 67.490909-57.064727 74.550303V667.151515H380.483491V372.363636h313.88703z m307.122424 0l166.120728 294.787879h-80.058182l-31.635394-50.781091H859.715491L830.841794 667.151515h-79.406546l169.285819-294.787879h80.771878z m499.587879 0l-47.398788 66.56H1237.152582c-13.017212 3.956364-19.518061 12.784485-19.518061 26.437819s6.516364 21.317818 19.518061 22.962424h216.529454c39.129212 0.729212 58.693818 28.811636 58.693819 84.216242 0 55.389091-16.678788 86.931394-50.067394 94.611394H1196.875248l-34.505696-69.833697h260.18909c14.273939-0.899879 21.410909-9.169455 21.41091-24.777697 0-15.623758-7.13697-23.07103-21.41091-22.372848H1217.634521c-26.360242 0-66.699636-34.521212-66.699636-99.234909 0-43.147636 22.233212-69.352727 66.699636-78.568728h283.461818zM656.32737 549.236364h-218.763637v49.136484h218.763637c10.503758 0 19.021576-11.015758 19.021575-24.576 0-13.560242-8.517818-24.560485-19.021575-24.560484z m302.979878-108.094061l-55.683878 100.538182h113.074424l-57.390546-100.538182z m-302.979878-11.729455h-218.763637v47.55394h218.763637c10.503758 0 19.021576-10.643394 19.021575-23.769212s-8.517818-23.784727-19.021575-23.784728zM361.461915 372.363636l-48.577939 74.488243H91.699976c-18.587152-1.117091-27.896242 6.68703-27.896243 23.412363v109.862788c0.155152 13.761939 7.400727 20.635152 21.767758 20.635152H272.606642v-40.261818h-103.392969v-73.929697h149.426424c19.905939-0.837818 29.866667 8.254061 29.866667 27.213575v121.949091c-2.622061 20.945455-12.567273 31.418182-29.866667 31.418182H63.834764C21.276703 666.205091 0.00543 650.286545 0.00543 619.442424V430.855758C-0.413479 391.866182 23.123006 372.363636 70.676945 372.363636h290.78497zM1892.853915 372.363636l-25.693091 66.901334h-202.565818c-26.686061 0.062061-40.013576 15.980606-40.013576 47.724606l266.053818 0.06206-22.496969 66.916849h-243.122424c2.497939 26.841212 15.685818 40.230788 39.579151 40.230788h226.366061L1866.431612 667.151515h-235.426909c-48.376242 0-75.248485-20.138667-80.585697-60.416V432.314182c0-39.610182 26.856727-59.578182 80.585697-59.950546H1892.853915z" fill="#C10013" p-id="6880"></path></svg>